<svg width="40" height="40" viewBox="0 0 40 40" fill="none" xmlns="http://www.w3.org/2000/svg">
<rect width="40" height="40" rx="10" fill="#38A169"/>
<path d="M20 20H40V30C40 35.5228 35.5228 40 30 40H20V20Z" fill="#D8D8D8"/>
<path d="M33.333 27.019V28.605H26.248V27.019H33.333ZM33.333 30.139V31.725H26.248V30.139H33.333Z" fill="#787878"/>
<path d="M20 0V40" stroke="#266D47"/>
<path d="M0 20H40" stroke="#266D47"/>
<path d="M32.92 10.344V12.232H26.136V10.344H32.92Z" fill="white"/>
<path d="M14.472 12.28H11.448V15.384H9.336V12.28H6.312V10.328H9.336V7.224H11.448V10.328H14.472V12.28Z" fill="white"/>
<path d="M11.467 33L9.96 30.811L8.673 33H6.22L8.739 29.029L6.132 25.245H8.673L10.136 27.379L11.39 25.245H13.843L11.357 29.15L14.008 33H11.467Z" fill="white"/>
</svg>
