<svg width="127" height="42" viewBox="0 0 127 42" fill="none" xmlns="http://www.w3.org/2000/svg">
<path d="M43.66 14.96C43.66 13.5733 43.96 12.34 44.56 11.26C45.16 10.1667 45.9933 9.32 47.06 8.72C48.14 8.10667 49.36 7.8 50.72 7.8C52.3867 7.8 53.8133 8.24 55 9.12C56.1867 10 56.98 11.2 57.38 12.72H53.62C53.34 12.1333 52.94 11.6867 52.42 11.38C51.9133 11.0733 51.3333 10.92 50.68 10.92C49.6267 10.92 48.7733 11.2867 48.12 12.02C47.4667 12.7533 47.14 13.7333 47.14 14.96C47.14 16.1867 47.4667 17.1667 48.12 17.9C48.7733 18.6333 49.6267 19 50.68 19C51.3333 19 51.9133 18.8467 52.42 18.54C52.94 18.2333 53.34 17.7867 53.62 17.2H57.38C56.98 18.72 56.1867 19.92 55 20.8C53.8133 21.6667 52.3867 22.1 50.72 22.1C49.36 22.1 48.14 21.8 47.06 21.2C45.9933 20.5867 45.16 19.74 44.56 18.66C43.96 17.58 43.66 16.3467 43.66 14.96ZM68.9144 22.14C67.5944 22.14 66.381 21.8333 65.2744 21.22C64.181 20.6067 63.3077 19.7533 62.6544 18.66C62.0144 17.5533 61.6944 16.3133 61.6944 14.94C61.6944 13.5667 62.0144 12.3333 62.6544 11.24C63.3077 10.1467 64.181 9.29333 65.2744 8.68C66.381 8.06667 67.5944 7.76 68.9144 7.76C70.2344 7.76 71.441 8.06667 72.5344 8.68C73.641 9.29333 74.5077 10.1467 75.1344 11.24C75.7744 12.3333 76.0944 13.5667 76.0944 14.94C76.0944 16.3133 75.7744 17.5533 75.1344 18.66C74.4944 19.7533 73.6277 20.6067 72.5344 21.22C71.441 21.8333 70.2344 22.14 68.9144 22.14ZM68.9144 19.02C70.0344 19.02 70.9277 18.6467 71.5944 17.9C72.2744 17.1533 72.6144 16.1667 72.6144 14.94C72.6144 13.7 72.2744 12.7133 71.5944 11.98C70.9277 11.2333 70.0344 10.86 68.9144 10.86C67.781 10.86 66.8744 11.2267 66.1944 11.96C65.5277 12.6933 65.1944 13.6867 65.1944 14.94C65.1944 16.18 65.5277 17.1733 66.1944 17.92C66.8744 18.6533 67.781 19.02 68.9144 19.02ZM93.357 22H89.937L84.217 13.34V22H80.797V7.96H84.217L89.937 16.66V7.96H93.357V22ZM108.736 7.96V10.7H105.016V22H101.596V10.7H97.8761V7.96H108.736ZM121.992 19.52H116.752L115.912 22H112.332L117.412 7.96H121.372L126.452 22H122.832L121.992 19.52ZM121.112 16.88L119.372 11.74L117.652 16.88H121.112Z" fill="#38A169"/>
<path d="M44.576 29.8C44.576 28.976 44.756 28.24 45.116 27.592C45.476 26.936 45.968 26.428 46.592 26.068C47.216 25.7 47.912 25.516 48.68 25.516C49.616 25.516 50.416 25.74 51.08 26.188C51.752 26.628 52.24 27.252 52.544 28.06H51.56C51.32 27.492 50.952 27.048 50.456 26.728C49.968 26.408 49.376 26.248 48.68 26.248C48.064 26.248 47.508 26.392 47.012 26.68C46.524 26.968 46.14 27.384 45.86 27.928C45.58 28.464 45.44 29.088 45.44 29.8C45.44 30.512 45.58 31.136 45.86 31.672C46.14 32.208 46.524 32.62 47.012 32.908C47.508 33.196 48.064 33.34 48.68 33.34C49.376 33.34 49.968 33.184 50.456 32.872C50.952 32.552 51.32 32.112 51.56 31.552H52.544C52.24 32.352 51.752 32.972 51.08 33.412C50.408 33.852 49.608 34.072 48.68 34.072C47.912 34.072 47.216 33.892 46.592 33.532C45.968 33.164 45.476 32.656 45.116 32.008C44.756 31.36 44.576 30.624 44.576 29.8ZM57.9858 34.084C57.2098 34.084 56.5058 33.904 55.8738 33.544C55.2418 33.176 54.7418 32.668 54.3738 32.02C54.0138 31.364 53.8338 30.624 53.8338 29.8C53.8338 28.976 54.0138 28.24 54.3738 27.592C54.7418 26.936 55.2418 26.428 55.8738 26.068C56.5058 25.7 57.2098 25.516 57.9858 25.516C58.7698 25.516 59.4778 25.7 60.1098 26.068C60.7418 26.428 61.2378 26.936 61.5978 27.592C61.9578 28.24 62.1378 28.976 62.1378 29.8C62.1378 30.624 61.9578 31.364 61.5978 32.02C61.2378 32.668 60.7418 33.176 60.1098 33.544C59.4778 33.904 58.7698 34.084 57.9858 34.084ZM57.9858 33.352C58.6098 33.352 59.1698 33.208 59.6658 32.92C60.1618 32.632 60.5538 32.22 60.8418 31.684C61.1298 31.14 61.2738 30.512 61.2738 29.8C61.2738 29.088 61.1298 28.464 60.8418 27.928C60.5538 27.392 60.1618 26.98 59.6658 26.692C59.1698 26.404 58.6098 26.26 57.9858 26.26C57.3618 26.26 56.8018 26.404 56.3058 26.692C55.8098 26.98 55.4178 27.392 55.1298 27.928C54.8418 28.464 54.6978 29.088 54.6978 29.8C54.6978 30.512 54.8418 31.14 55.1298 31.684C55.4178 32.22 55.8098 32.632 56.3058 32.92C56.8018 33.208 57.3618 33.352 57.9858 33.352ZM71.8708 25.72V34H71.0308V27.388L68.0788 34H67.4668L64.5148 27.412V34H63.6748V25.72H64.5628L67.7668 32.896L70.9708 25.72H71.8708ZM80.8374 34.084C80.0614 34.084 79.3574 33.904 78.7254 33.544C78.0934 33.176 77.5934 32.668 77.2254 32.02C76.8654 31.364 76.6854 30.624 76.6854 29.8C76.6854 28.976 76.8654 28.24 77.2254 27.592C77.5934 26.936 78.0934 26.428 78.7254 26.068C79.3574 25.7 80.0614 25.516 80.8374 25.516C81.6214 25.516 82.3294 25.7 82.9614 26.068C83.5934 26.428 84.0894 26.936 84.4494 27.592C84.8094 28.24 84.9894 28.976 84.9894 29.8C84.9894 30.624 84.8094 31.364 84.4494 32.02C84.0894 32.668 83.5934 33.176 82.9614 33.544C82.3294 33.904 81.6214 34.084 80.8374 34.084ZM80.8374 33.352C81.4614 33.352 82.0214 33.208 82.5174 32.92C83.0134 32.632 83.4054 32.22 83.6934 31.684C83.9814 31.14 84.1254 30.512 84.1254 29.8C84.1254 29.088 83.9814 28.464 83.6934 27.928C83.4054 27.392 83.0134 26.98 82.5174 26.692C82.0214 26.404 81.4614 26.26 80.8374 26.26C80.2134 26.26 79.6534 26.404 79.1574 26.692C78.6614 26.98 78.2694 27.392 77.9814 27.928C77.6934 28.464 77.5494 29.088 77.5494 29.8C77.5494 30.512 77.6934 31.14 77.9814 31.684C78.2694 32.22 78.6614 32.632 79.1574 32.92C79.6534 33.208 80.2134 33.352 80.8374 33.352ZM94.3554 25.612V26.308H90.6594V29.44H93.7794V30.136H90.6594V34H89.8194V25.612H94.3554ZM100.201 34L98.1253 30.496H96.5773V34H95.7373V25.612H98.2573C99.1933 25.612 99.9013 25.836 100.381 26.284C100.869 26.732 101.113 27.32 101.113 28.048C101.113 28.656 100.937 29.176 100.585 29.608C100.241 30.032 99.7293 30.308 99.0493 30.436L101.209 34H100.201ZM96.5773 29.812H98.2693C98.9253 29.812 99.4173 29.652 99.7453 29.332C100.081 29.012 100.249 28.584 100.249 28.048C100.249 27.496 100.089 27.072 99.7693 26.776C99.4493 26.472 98.9453 26.32 98.2573 26.32H96.5773V29.812ZM103.62 26.296V29.428H106.8V30.124H103.62V33.304H107.16V34H102.78V25.6H107.16V26.296H103.62ZM109.655 26.296V29.428H112.835V30.124H109.655V33.304H113.195V34H108.815V25.6H113.195V26.296H109.655ZM115.691 33.316H118.703V34H114.851V25.612H115.691V33.316ZM124.761 32.008H120.945L120.213 34H119.325L122.385 25.72H123.333L126.381 34H125.493L124.761 32.008ZM124.509 31.312L122.853 26.776L121.197 31.312H124.509Z" fill="#1C1C1C"/>
<rect y="2" width="40" height="40" rx="10" fill="#38A169"/>
<path d="M20 22H40V32C40 37.5228 35.5228 42 30 42H20V22Z" fill="#D8D8D8"/>
<path d="M33.333 29.019V30.605H26.248V29.019H33.333ZM33.333 32.139V33.725H26.248V32.139H33.333Z" fill="#787878"/>
<path d="M20 2V42" stroke="#266D47"/>
<path d="M0 22H40" stroke="#266D47"/>
<path d="M32.92 12.344V14.232H26.136V12.344H32.92Z" fill="white"/>
<path d="M14.472 14.28H11.448V17.384H9.336V14.28H6.312V12.328H9.336V9.224H11.448V12.328H14.472V14.28Z" fill="white"/>
<path d="M11.467 35L9.96 32.811L8.673 35H6.22L8.739 31.029L6.132 27.245H8.673L10.136 29.379L11.39 27.245H13.843L11.357 31.15L14.008 35H11.467Z" fill="white"/>
</svg>
