<svg width="102" height="108" viewBox="0 0 102 108" fill="none" xmlns="http://www.w3.org/2000/svg">
<path fill-rule="evenodd" clip-rule="evenodd" d="M54.6288 0H47.3448V33.9978L35.2635 2.47558L28.5101 5.35196L40.9044 37.6908L17.5089 13.0279L12.3585 18.4574L34.782 42.0956L5.72281 28.7116L2.80661 35.7478L33.5546 49.9096H0V57.5882H33.5546L2.80662 71.7499L5.72281 78.7862L34.782 65.4022L12.3585 89.0404L17.5089 94.4696L40.9044 69.8069L28.5101 102.146L35.2635 105.022L47.3448 73.5V107.498H54.6288V73.5L66.7101 105.022L73.4633 102.146L61.0694 69.8069L84.4647 94.4696L89.6149 89.0404L67.1914 65.4022L96.2508 78.7862L99.1667 71.7499L68.4192 57.5882H101.974V49.9096H68.4186L99.1667 35.7478L96.2508 28.7116L67.1914 42.0956L89.6149 18.4574L84.4647 13.0279L61.0694 37.6908L73.4633 5.35196L66.7101 2.47558L54.6288 33.9978V0Z" fill="#38A169"/>
</svg>
