<svg width="77" height="81" viewBox="0 0 77 81" fill="none" xmlns="http://www.w3.org/2000/svg">
<path fill-rule="evenodd" clip-rule="evenodd" d="M41.4829 0.639893H36.0622V25.9411L27.0713 2.48222L22.0454 4.62283L31.2692 28.6895L13.8583 10.3353L10.0253 14.3759L26.7129 31.9675L5.08705 22.0071L2.91681 27.2435L25.7996 37.7827H0.828125V43.4971H25.7995L2.91682 54.0363L5.08705 59.2727L26.7129 49.3123L10.0253 66.9039L13.8583 70.9443L31.2692 52.5903L22.0454 76.6571L27.0713 78.7975L36.0622 55.3387V80.6399H41.4829V55.3387L50.4739 78.7975L55.4996 76.6571L46.2761 52.5903L63.6869 70.9443L67.5197 66.9039L50.8321 49.3123L72.4581 59.2727L74.6282 54.0363L51.7458 43.4971H76.717V37.7827H51.7454L74.6282 27.2435L72.4581 22.0071L50.8321 31.9675L67.5197 14.3759L63.6869 10.3353L46.2761 28.6894L55.4996 4.62283L50.4739 2.48222L41.4829 25.9411V0.639893Z" fill="#38B2AC"/>
</svg>
