<svg width="28" height="28" viewBox="0 0 28 28" fill="none" xmlns="http://www.w3.org/2000/svg">
<path d="M14 27.3333C6.63616 27.3333 0.666626 21.3637 0.666626 14C0.666626 6.6362 6.63616 0.666672 14 0.666672C21.3637 0.666672 27.3333 6.6362 27.3333 14C27.3333 21.3637 21.3637 27.3333 14 27.3333ZM12.1625 9.21946C12.0749 9.16104 11.972 9.12988 11.8666 9.12988C11.5721 9.12988 11.3333 9.36866 11.3333 9.66322V18.3368C11.3333 18.4421 11.3645 18.5451 11.4229 18.6327C11.5862 18.8777 11.9174 18.944 12.1625 18.7805L18.6677 14.4437C18.7262 14.4047 18.7765 14.3544 18.8156 14.2959C18.979 14.0508 18.9128 13.7196 18.6677 13.5563L12.1625 9.21946Z" fill="#38A169"/>
</svg>
