<svg width="480" height="555" viewBox="0 0 480 555" fill="none" xmlns="http://www.w3.org/2000/svg">
<path d="M165.02 45.8057C198.598 -14.5238 281.339 -14.5237 314.915 45.8057L316.134 47.9968C331.627 75.8287 359.864 93.0157 390.473 93.2417L392.885 93.2594C459.236 93.7492 500.606 169.286 467.831 230.105L466.641 232.314C451.521 260.372 451.521 294.746 466.641 322.804L467.831 325.012C500.606 385.832 459.236 461.368 392.885 461.858L390.473 461.874C359.864 462.102 331.627 479.289 316.134 507.12L314.915 509.311C281.339 569.641 198.598 569.641 165.02 509.311L163.801 507.12C148.31 479.289 120.071 462.102 89.4615 461.874L87.0517 461.858C20.7008 461.368 -20.669 385.832 12.1039 325.012L13.2942 322.804C28.4135 294.746 28.4135 260.372 13.2942 232.314L12.1039 230.105C-20.669 169.286 20.7008 93.7492 87.0517 93.2594L89.4615 93.2417C120.071 93.0157 148.31 75.8287 163.801 47.9968L165.02 45.8057Z" fill="#0BC5EA"/>
<path d="M174.363 74.6948C203.755 21.8856 276.182 21.8857 305.572 74.6948L306.64 76.6127C320.201 100.975 344.918 116.02 371.712 116.218L373.823 116.233C431.903 116.662 468.116 182.782 439.427 236.02L438.385 237.954C425.15 262.514 425.15 292.604 438.385 317.164L439.427 319.096C468.116 372.336 431.903 438.455 373.823 438.884L371.712 438.899C344.918 439.097 320.201 454.143 306.64 478.504L305.572 480.422C276.182 533.232 203.755 533.232 174.363 480.422L173.295 478.504C159.736 454.143 135.017 439.097 108.223 438.899L106.113 438.884C48.0335 438.455 11.8206 372.336 40.5082 319.096L41.5501 317.164C54.7847 292.604 54.7847 262.514 41.5501 237.954L40.5082 236.02C11.8206 182.782 48.0335 116.662 106.113 116.233L108.223 116.218C135.017 116.02 159.736 100.975 173.295 76.6127L174.363 74.6948Z" fill="#00B5D8"/>
</svg>
